HIERARCHY
ROOT Hips
{
	OFFSET 0.000000 0.000000 0.000000
	CHANNELS 6 Xposition Yposition Zposition Zrotation Yrotation Xrotation 
	JOINT LHipJoint
	{
		OFFSET 0.000000 0.000000 0.000000
		CHANNELS 3 Zrotation Yrotation Xrotation
		JOINT LeftUpLeg
		{
			OFFSET 1.363060 -1.794630 0.839290
			CHANNELS 3 Zrotation Yrotation Xrotation
			JOINT LeftLeg
			{
				OFFSET 2.448110 -6.726130 0.000000
				CHANNELS 3 Zrotation Yrotation Xrotation
				JOINT LeftFoot
				{
					OFFSET 2.562200 -7.039590 0.000000
					CHANNELS 3 Zrotation Yrotation Xrotation
					JOINT LeftToeBase
					{
						OFFSET 0.157640 -0.433110 2.322550
						CHANNELS 3 Zrotation Yrotation Xrotation
						End Site
						{
							OFFSET 0.000000 0.000000 0.000000
						}
					}
				}
			}
		}
	}
	JOINT RHipJoint
	{
		OFFSET 0.000000 0.000000 0.000000
		CHANNELS 3 Zrotation Yrotation Xrotation
		JOINT RightUpLeg
		{
			OFFSET -1.305520 -1.794630 0.839290
			CHANNELS 3 Zrotation Yrotation Xrotation
			JOINT RightLeg
			{
				OFFSET -2.542530 -6.985550 0.000000
				CHANNELS 3 Zrotation Yrotation Xrotation
				JOINT RightFoot
				{
					OFFSET -2.568260 -7.056230 0.000000
					CHANNELS 3 Zrotation Yrotation Xrotation
					JOINT RightToeBase
					{
						OFFSET -0.164730 -0.452590 2.363150
						CHANNELS 3 Zrotation Yrotation Xrotation
						End Site
						{
							OFFSET 0.000000 0.000000 0.000000
						}
					}
				}
			}
		}
	}
}
MOTION
Frames: 33
Frame Time: 0.008333
3.505770 15.894854 -0.955709 76.625198 -78.933530 -28.458070 -7.174022 0.277401 9.399704 6.845069 -14.041297 -125.540942 -6.724715 -0.875212 6.847691 -0.786487 -0.161049 10.344546 1.566800 -0.000001 -52.213400 9.141475 5.251937 -3.690346 7.749270 -2.202549 -77.634095 1.895974 -5.237158 54.081340 -2.947247 -6.169440 -23.731926 1.693600 0.000000 -43.043700
3.510316 15.860079 -0.965809 77.498043 -78.818116 -29.320996 -7.127054 0.300398 9.096261 6.126194 -14.518303 -124.732731 -6.629284 -0.363021 8.473295 -1.079074 -0.927895 12.999593 1.246000 -0.000000 -50.646999 9.193104 5.328248 -3.612202 7.472996 -2.184346 -78.051366 1.824827 -5.304464 54.762942 -2.963950 -6.173827 -24.072687 1.747100 -0.000000 -42.733700
3.512417 15.829174 -0.974865 78.422388 -78.713246 -30.243607 -7.059759 0.328228 8.788660 5.286063 -15.025747 -123.698871 -6.522418 0.048825 9.872419 -1.263201 -1.442267 15.117025 0.977199 0.000000 -48.621400 9.242816 5.391155 -3.515163 7.174274 -2.117745 -78.404894 1.749631 -5.351995 55.358870 -2.989401 -6.220500 -24.381962 1.802301 -0.000000 -42.443900
3.511910 15.802235 -0.981702 79.345012 -78.625472 -31.155134 -6.985374 0.364630 8.492421 4.374288 -15.549968 -122.526549 -6.406509 0.380989 11.152934 -1.337395 -1.625349 16.589117 0.846900 0.000000 -46.821200 9.284964 5.432576 -3.397719 6.873744 -1.997127 -78.718814 1.673698 -5.381066 55.861705 -3.022118 -6.303467 -24.645905 1.856300 0.000000 -42.202800
3.508918 15.779455 -0.985743 80.247796 -78.559939 -32.033902 -6.912388 0.413142 8.206525 3.402701 -16.085552 -121.294070 -6.282038 0.669678 12.468820 -1.314434 -1.470663 17.383516 0.890900 0.000001 -45.627000 9.317895 5.449227 -3.260095 6.584744 -1.824632 -79.000341 1.599512 -5.393050 56.270009 -3.060135 -6.413722 -24.860841 1.907500 0.000000 -41.987600
3.503409 15.760743 -0.986172 81.095206 -78.525489 -32.843003 -6.848519 0.472218 7.931594 2.406452 -16.613775 -120.072069 -6.137868 0.947033 13.952651 -1.206559 -1.002245 17.543914 1.105400 0.000000 -45.155200 9.339320 5.435843 -3.101965 6.329402 -1.604074 -79.260350 1.530337 -5.390519 56.583415 -3.100475 -6.539070 -25.017544 1.952200 -0.000000 -41.840600
3.495313 15.745884 -0.982712 81.882995 -78.529984 -33.583302 -6.795516 0.538133 7.660830 1.408079 -17.111990 -118.897704 -5.960588 1.238259 15.704360 -1.026179 -0.278069 17.167627 1.449701 -0.000000 -45.369000 9.349958 5.390817 -2.924618 6.123916 -1.341861 -79.496997 1.468716 -5.375783 56.806029 -3.140101 -6.666107 -25.115802 1.988001 0.000000 -41.772500
3.485097 15.734820 -0.975318 82.617215 -78.582141 -34.280807 -6.750345 0.602977 7.380862 0.421212 -17.550892 -117.774508 -5.736379 1.559018 17.781011 -0.787014 0.622526 16.390895 1.862900 -0.000000 -46.125400 9.351745 5.315507 -2.732548 5.981554 -1.047287 -79.695756 1.416680 -5.351261 56.944836 -3.175916 -6.782018 -25.159887 2.013299 0.000000 -41.784699
3.472541 15.727103 -0.964329 83.312978 -78.684196 -34.953426 -6.708639 0.657444 7.089621 -0.511212 -17.899061 -116.686845 -5.453324 1.904271 20.152477 -0.500875 1.641781 15.379374 2.297100 0.000000 -47.167100 9.348085 5.213506 -2.527857 5.907176 -0.729791 -79.854023 1.375742 -5.319499 57.008158 -3.205627 -6.875878 -25.157105 2.027200 0.000000 -41.866000
3.458182 15.722600 -0.950275 83.985346 -78.836767 -35.634320 -6.664694 0.691103 6.778476 -1.376583 -18.133273 -115.598162 -5.109733 2.265011 22.767691 -0.188045 2.701088 14.287227 2.704400 -0.000000 -48.195800 9.342275 5.090653 -2.316195 5.901365 -0.399871 -79.956085 1.346364 -5.282450 57.005757 -3.227784 -6.941464 -25.118426 2.030400 0.000000 -41.996000
3.442227 15.721061 -0.933705 84.639968 -79.034510 -36.333688 -6.615437 0.695218 6.448044 -2.155269 -18.242508 -114.467311 -4.712876 2.621506 25.526764 0.129154 3.735006 13.246387 3.056300 0.000000 -48.912400 9.336852 4.953338 -2.103190 5.958875 -0.069584 -79.993563 1.328634 -5.241889 56.945545 -3.242042 -6.977106 -25.053807 2.024600 0.000000 -42.158800
3.424853 15.722185 -0.915320 85.276716 -79.265207 -37.049380 -6.560596 0.666532 6.105379 -2.838214 -18.234784 -113.260292 -4.280428 2.952410 28.313892 0.428070 4.684788 12.341082 3.338000 -0.000001 -49.064901 9.334021 4.808727 -1.892696 6.065774 0.248843 -79.968115 1.321517 -5.199256 56.835376 -3.249191 -6.985754 -24.971958 2.011700 -0.000000 -42.339101
3.406226 15.725789 -0.895868 85.888722 -79.512897 -37.767241 -6.502687 0.608034 5.760732 -3.431149 -18.134097 -111.955632 -3.836149 3.241104 31.022459 0.690012 5.500888 11.597024 3.542300 -0.000000 -48.500500 9.335243 4.663405 -1.686934 6.203296 0.545400 -79.887134 1.323195 -5.155194 56.681377 -3.251180 -6.974700 -24.880845 1.994100 -0.000000 -42.512600
3.386680 15.731843 -0.875621 86.445862 -79.764617 -38.453944 -6.446799 0.524517 5.420015 -3.955251 -17.969006 -110.543120 -3.402181 3.480647 33.583456 0.902886 6.143855 10.986684 3.663300 0.000000 -47.222301 9.339152 4.521034 -1.490450 6.358326 0.811803 -79.750588 1.331975 -5.109766 56.486312 -3.250248 -6.954218 -24.783175 1.974300 0.000000 -42.691101
3.366246 15.740184 -0.855042 86.936322 -80.006197 -39.087383 -6.397569 0.426538 5.091171 -4.437476 -17.771896 -109.030355 -2.997660 3.670210 35.949919 1.065321 6.606886 10.452580 3.704600 -0.000000 -45.376800 9.345683 4.385158 -1.302310 6.511349 1.045852 -79.569422 1.345215 -5.062215 56.252783 -3.249315 -6.935791 -24.682145 1.954300 0.000000 -42.859200
3.345049 15.750808 -0.834361 87.347115 -80.228556 -39.648414 -6.358812 0.323665 4.777490 -4.907233 -17.566872 -107.434197 -2.633978 3.815288 38.109502 1.183698 6.907540 9.928809 3.675600 -0.000001 -43.228600 9.353831 4.257508 -1.121474 6.647183 1.249309 -79.350762 1.360359 -5.011423 55.982023 -3.251156 -6.931058 -24.578081 1.936000 0.000000 -43.013300
3.323131 15.763659 -0.813482 87.673365 -80.428085 -40.127581 -6.333059 0.222831 4.478357 -5.390488 -17.366284 -105.775476 -2.315181 3.924555 40.076719 1.269422 7.083178 9.356344 3.590200 -0.000001 -41.065700 9.362123 4.137929 -0.946891 6.756829 1.428030 -79.097304 1.375255 -4.956004 55.673756 -3.257902 -6.949737 -24.468308 1.920200 -0.000000 -43.165800
3.300373 15.778639 -0.792424 87.926548 -80.602120 -40.529058 -6.320994 0.130967 4.195189 -5.905147 -17.177789 -104.081214 -2.041320 4.005990 41.867795 1.336286 7.187610 8.704039 3.469901 0.000000 -39.156200 9.370399 4.026433 -0.773894 6.829245 1.590387 -78.820478 1.387804 -4.894764 55.328297 -3.271334 -6.998607 -24.351398 1.907500 -0.000000 -43.302800
3.276791 15.795665 -0.770848 88.119059 -80.755341 -40.863702 -6.322887 0.049680 3.925161 -6.460780 -16.994479 -102.373058 -1.808164 4.067696 43.512301 1.396145 7.268644 7.956604 3.332100 0.000000 -37.660300 9.377360 3.921026 -0.600952 6.864610 1.745916 -78.521566 1.396982 -4.826851 54.945611 -3.292153 -7.081149 -24.224030 1.897400 0.000000 -43.426899
3.252284 15.814543 -0.748436 88.269527 -80.893550 -41.146855 -6.338511 -0.020620 3.667207 -7.056862 -16.806632 -100.670260 -1.610509 4.115163 45.029243 1.458594 7.369403 7.123775 3.193000 -0.000000 -36.660399 9.382182 3.819521 -0.426066 6.865175 1.903663 -78.204676 1.402256 -4.751850 54.525255 -3.320078 -7.197194 -24.080362 1.888800 0.000000 -43.558600
3.226905 15.835090 -0.724836 88.394724 -81.023774 -41.394175 -6.367394 -0.080506 3.421663 -7.684943 -16.602645 -98.989873 -1.443335 4.151950 46.426904 1.529648 7.519985 6.232025 3.063900 0.000000 -36.149701 9.384100 3.719607 -0.247569 6.836787 2.071333 -77.875827 1.403894 -4.670089 54.069105 -3.354364 -7.342988 -23.919236 1.880300 0.000000 -43.688900
3.200434 15.856928 -0.699736 88.508700 -81.152615 -41.613207 -6.409333 -0.130776 3.190815 -8.328931 -16.373443 -97.346153 -1.302325 4.179406 47.700385 1.611972 7.736914 5.319201 2.952000 0.000000 -36.072500 9.382470 3.618673 -0.064257 6.787503 2.254109 -77.542323 1.402835 -4.582255 53.577872 -3.393538 -7.512281 -23.737019 1.869900 -0.000000 -43.832100
3.172868 15.879712 -0.673027 88.620619 -81.284638 -41.808456 -6.463315 -0.171256 2.978737 -8.970622 -16.115609 -95.752286 -1.184625 4.197511 48.834137 1.705115 8.022587 4.425064 2.860300 0.000000 -36.312500 9.377214 3.515079 0.125180 6.724828 2.453897 -77.215451 1.400417 -4.489701 53.055004 -3.436043 -7.696748 -23.535393 1.856400 0.000000 -43.968400
3.144338 15.903058 -0.644305 88.707887 -81.426064 -41.954200 -6.529408 -0.204656 2.788873 -9.583520 -15.827929 -94.219987 -1.087167 4.205289 49.812988 1.806121 8.365128 3.580421 2.787200 0.000000 -36.724400 9.366378 3.405800 0.318673 6.663601 2.669849 -76.900354 1.398776 -4.393993 52.501023 -3.479807 -7.888567 -23.309271 1.837200 -0.000000 -44.151901
3.114720 15.926493 -0.613991 88.784762 -81.573964 -42.056276 -6.604610 -0.227386 2.627269 -10.155940 -15.520437 -92.760637 -1.010873 4.201862 50.612380 1.910115 8.742523 2.804662 2.729300 -0.000001 -37.114500 9.352084 3.292042 0.518633 6.603269 2.897477 -76.614380 1.399299 -4.296931 51.923104 -3.523293 -8.076848 -23.069154 1.812400 0.000000 -44.308800
3.084198 15.949630 -0.581855 88.811374 -81.730795 -42.070949 -6.688202 -0.241424 2.497700 -10.665694 -15.202801 -91.385716 -0.954684 4.186128 51.220890 2.011573 9.124804 2.099232 2.679600 0.000000 -37.299500 9.332776 3.171867 0.722461 6.556353 3.131647 -76.363542 1.404288 -4.200207 51.322068 -3.564623 -8.254421 -22.811558 1.780400 -0.000000 -44.493100
3.052976 15.972091 -0.548038 88.761495 -81.894494 -41.968199 -6.778014 -0.246305 2.403712 -11.101831 -14.888993 -90.106003 -0.919114 4.157751 51.630060 2.105137 9.481049 1.454485 2.630899 0.000000 -37.131800 9.308737 3.045568 0.929279 6.527058 3.366024 -76.156946 1.415254 -4.105355 50.701955 -3.602612 -8.415165 -22.539586 1.740899 -0.000000 -44.708501
3.021284 15.993585 -0.513064 88.642608 -82.059214 -41.754113 -6.870159 -0.239658 2.345712 -11.468166 -14.592261 -88.924326 -0.905818 4.117191 51.835767 2.186254 9.783688 0.854422 2.576200 -0.000000 -36.549500 9.282378 2.916332 1.138175 6.510694 3.592979 -76.000757 1.432793 -4.013545 50.069729 -3.636264 -8.552698 -22.263167 1.695100 -0.000000 -44.908600
2.989420 16.013885 -0.477254 88.447704 -82.220516 -41.421778 -6.961924 -0.221253 2.322542 -11.768291 -14.323449 -87.843398 -0.915075 4.065182 51.842988 2.252064 10.013206 0.283251 2.510800 0.000000 -35.585501 9.254849 2.786190 1.346738 6.505814 3.806122 -75.895579 1.457284 -3.925582 49.430232 -3.664802 -8.663925 -21.986162 1.643700 -0.000000 -45.096700
2.957648 16.032821 -0.440512 88.140552 -82.378383 -40.935394 -7.052299 -0.193045 2.332980 -12.001770 -14.090690 -86.868022 -0.945431 4.002352 51.663645 2.301576 10.159813 -0.270004 2.432700 -0.000000 -34.356900 9.225473 2.655045 1.552585 6.516348 4.002627 -75.840895 1.489331 -3.841946 48.784711 -3.688211 -8.750081 -21.706974 1.587100 0.000000 -45.298099
2.926378 16.050349 -0.403207 87.736866 -82.528011 -40.315849 -7.138517 -0.154949 2.372166 -12.182794 -13.897552 -85.992910 -0.996392 3.929998 51.310572 2.334962 10.222620 -0.809335 2.342900 -0.000000 -33.032300 9.196038 2.526135 1.753146 6.536013 4.178593 -75.831918 1.528037 -3.762804 48.138859 -3.706374 -8.811673 -21.429595 1.526500 0.000000 -45.508300
2.896043 16.066506 -0.365513 87.248063 -82.667396 -39.581619 -7.218936 -0.108248 2.434490 -12.323592 -13.743515 -85.210675 -1.066585 3.849252 50.799359 2.353294 10.206826 -1.333321 2.244101 -0.000000 -31.785900 9.167301 2.401748 1.945618 6.560727 4.332245 -75.862506 1.572391 -3.688257 47.497615 -3.719542 -8.851361 -21.155646 1.463200 -0.000000 -45.723800
2.866849 16.081290 -0.327397 86.681435 -82.796635 -38.744012 -7.293184 -0.055015 2.514876 -12.432572 -13.624940 -84.514389 -1.154059 3.761054 50.146863 2.358048 10.120981 -1.836392 2.140200 0.000000 -30.763299 9.139245 2.282658 2.127739 6.589790 4.464674 -75.925565 1.621450 -3.618071 46.863945 -3.728366 -8.873713 -20.884295 1.397700 -0.000001 -45.952600
